<?xml version="1.0" encoding="UTF-8" standalone="no"?>
<!-- Created with Inkscape (http://www.inkscape.org/) -->

<svg
   xmlns:dc="http://purl.org/dc/elements/1.1/"
   xmlns:cc="http://creativecommons.org/ns#"
   xmlns:rdf="http://www.w3.org/1999/02/22-rdf-syntax-ns#"
   xmlns:svg="http://www.w3.org/2000/svg"
   xmlns="http://www.w3.org/2000/svg"
   xmlns:sodipodi="http://sodipodi.sourceforge.net/DTD/sodipodi-0.dtd"
   xmlns:inkscape="http://www.inkscape.org/namespaces/inkscape"
   width="700mm"
   height="600mm"
   viewBox="0 0 700 600"
   version="1.1"
   id="svg8"
   inkscape:version="0.92.4 (5da689c313, 2019-01-14)"
   sodipodi:docname="drawing.svg">
  <defs
     id="defs2" />
  <sodipodi:namedview
     id="base"
     pagecolor="#ffffff"
     bordercolor="#666666"
     borderopacity="1.0"
     inkscape:pageopacity="0.0"
     inkscape:pageshadow="2"
     inkscape:zoom="0.35"
     inkscape:cx="432.76262"
     inkscape:cy="930.73036"
     inkscape:document-units="mm"
     inkscape:current-layer="layer1"
     showgrid="false"
     inkscape:window-width="1920"
     inkscape:window-height="1001"
     inkscape:window-x="-9"
     inkscape:window-y="350"
     inkscape:window-maximized="1" />
  <metadata
     id="metadata5">
    <rdf:RDF>
      <cc:Work
         rdf:about="">
        <dc:format>image/svg+xml</dc:format>
        <dc:type
           rdf:resource="http://purl.org/dc/dcmitype/StillImage" />
        <dc:title></dc:title>
      </cc:Work>
    </rdf:RDF>
  </metadata>
  <g
     inkscape:label="Layer 1"
     inkscape:groupmode="layer"
     id="layer1"
     transform="translate(0,303)">
    <g
       id="g3905"
       transform="matrix(0.88951857,0,0,0.80582236,-124.85336,-415.31617)">
      <path
         id="path3855"
         p-id="2897"
         d="m 889.0941,274.95107 v 484.80468 c 0,19.27227 -15.41781,34.69009 -34.69008,34.69009 H 212.42325 c -19.27227,0 -34.69008,-15.41782 -34.69008,-34.69009 V 274.95107 Z"
         inkscape:connector-curvature="0"
         style="fill:#6f68e6" />
      <path
         id="path3857"
         p-id="2898"
         d="M 840.75925,323.33731 V 746.47073 H 226.18794 V 323.33731 Z"
         inkscape:connector-curvature="0"
         style="fill:#ffffff" />
      <path
         id="path3859"
         p-id="2899"
         d="m 448.40151,794.44584 h 170.45253 v 53.10581 H 448.40151 Z"
         inkscape:connector-curvature="0"
         style="fill:#c9e6f8" />
      <path
         id="path3861"
         p-id="2900"
         d="M 746.4793,882.67001 H 320.34797 c 0,-9.422 3.85446,-18.41572 10.27855,-24.83981 6.42409,-6.42409 14.98954,-10.27855 24.83981,-10.27855 h 356.75115 c 18.844,0.42827 34.26182,15.84609 34.26182,35.11836 z"
         inkscape:connector-curvature="0"
         style="fill:#6f68e6" />
      <path
         id="path3863"
         p-id="2901"
         d="m 555.46968,553.75659 c -15.84609,-32.54873 -48.39482,-52.67754 -84.36972,-52.67754 h -52.67754 c -2.99791,-12.41991 -10.27855,-23.555 -20.55709,-31.26391 -4.28273,-2.99791 -6.42409,-7.70891 -5.99582,-12.84818 0.42827,-7.28064 6.42409,-13.27645 13.70473,-13.70473 4.28272,-0.42827 8.13718,1.28482 11.13509,3.85446 2.99791,2.99791 4.711,6.85236 4.711,10.70681 h 26.98118 c 0,-11.56336 -4.711,-22.69845 -13.27646,-30.83563 -8.56545,-8.13718 -19.70054,-11.99163 -31.2639,-11.13509 -20.98537,1.28482 -38.11627,17.98745 -39.40109,39.40109 -0.85655,14.133 5.56754,27.83772 16.70263,36.40318 3.42618,2.56963 5.99582,5.99581 8.13718,9.85027 h -47.10999 c -35.97491,0 -68.52363,20.12881 -84.36972,52.24927 -5.99582,11.99163 -5.13927,25.69636 1.71309,36.83145 6.85236,11.13509 18.844,17.98745 32.12045,17.98745 h 229.55416 c 13.27646,0 25.26809,-6.85236 32.12045,-17.98745 7.28064,-11.13509 8.13719,-24.83982 2.14137,-36.83145 z m -24.83982,22.27018 c -0.85654,1.71309 -3.85445,5.13927 -9.422,5.13927 H 292.08197 c -5.56754,0 -8.13718,-3.42618 -9.42199,-5.13927 -0.85655,-1.71309 -2.99791,-5.56755 -0.42828,-10.70682 11.13509,-23.12673 34.26182,-37.25972 59.95818,-37.25972 h 128.91008 c 25.69636,0 48.82308,14.13299 59.95817,37.25972 2.56964,5.13927 0.42828,9.422 -0.42827,10.70682 z"
         inkscape:connector-curvature="0"
         style="fill:#e0e0e0" />
      <path
         id="path3865"
         p-id="2902"
         d="M 312.21079,567.88959 H 501.07905 V 716.07194 H 312.21079 Z"
         inkscape:connector-curvature="0"
         style="fill:#ff5252" />
      <path
         id="path3867"
         p-id="2903"
         d="m 605.14931,619.28231 h 195.72062 v 52.24927 H 605.14931 Z m 0,-73.23463 h 195.72062 v 52.24927 H 605.14931 Z m 0,-72.80636 h 195.72062 v 52.24927 H 605.14931 Z"
         inkscape:connector-curvature="0"
         style="fill:#e4e4e4" />
      <path
         id="path3869"
         p-id="2904"
         d="m 897.65956,402.57633 c -33.40527,11.56336 -71.09327,4.711 -98.931,-19.27227 L 782.88248,253.53743 769.17775,141.32999 h 77.08908 c 23.555,0 43.68382,16.70263 47.96654,39.82936 l 13.27646,72.37808 18.41572,100.64408 c 3.85446,20.98537 -8.13718,41.54246 -28.26599,48.39482 z"
         inkscape:connector-curvature="0"
         style="fill:#e2e0ff" />
      <path
         id="path3871"
         p-id="2905"
         d="m 798.72856,383.30406 c -38.11626,33.40527 -94.64826,33.40527 -132.76453,0 l -7.70891,-129.76663 -6.85236,-112.20744 h 117.77499 l 13.70473,112.20744 z"
         inkscape:connector-curvature="0"
         style="fill:#a6a2f0" />
      <path
         id="path3873"
         p-id="2906"
         d="m 665.96403,383.30406 c -38.11627,33.40527 -94.64826,33.40527 -132.76453,0 V 141.32999 h 117.77499 l 6.85236,112.20744 z"
         inkscape:connector-curvature="0"
         style="fill:#e2e0ff" />
      <path
         id="path3875"
         p-id="2907"
         d="m 533.62777,141.32999 v 241.97407 c -38.11627,33.40527 -94.64826,33.40527 -132.76453,0 l 8.13718,-129.76663 6.42409,-112.20744 z"
         inkscape:connector-curvature="0"
         style="fill:#a6a2f0" />
      <path
         id="path3877"
         p-id="2908"
         d="m 408.57215,253.53743 -8.13719,129.76663 c -38.11627,33.40527 -94.64826,33.40527 -132.76453,0 l 15.84609,-129.76663 14.133,-112.20744 h 117.77499 z"
         inkscape:connector-curvature="0"
         style="fill:#e2e0ff" />
      <path
         id="path3879"
         p-id="2909"
         d="M 297.64952,141.32999 283.94479,253.53743 268.0987,383.30406 c -27.83772,24.41154 -65.95399,30.83563 -98.93099,19.27227 -20.12881,-6.85237 -32.12045,-27.83773 -28.266,-48.39482 l 18.41573,-100.64408 13.27645,-72.37808 c 4.28273,-23.12673 24.41155,-39.82936 47.96654,-39.82936 z"
         inkscape:connector-curvature="0"
         style="fill:#a6a2f0" />
      <path
         id="path3881"
         p-id="2910"
         d="m 312.21079,567.88959 h 188.86826 v 26.98117 H 312.21079 Z"
         inkscape:connector-curvature="0"
         style="fill:#f25757" />
    </g>
  </g>
</svg>
